# xmcd
#
# Track frame offsets:
#	150
#	30843
#	56434
#	84405
#	110789
#	135545
#	156244
#	180549
#	201759
#	227244
#	242324
#	274945
#	296057
#	322369
#
# Disc length: 4534 seconds
#
# Revision: 0
# Processed by: cddbd v1.5.1PL0 Copyright (c) Steve Scherf et al.
# Submitted via: dBpowerAMP V4.0
#
DISCID=c511b40e
DTITLE=George Michael - Ladies and Gentlemen: The Best Of George Michael Disc 1
DYEAR=1998
DGENRE=Rock/Pop
TTITLE0=Jesus To A Child
TTITLE1=Father Figure
TTITLE2=Careless Whisper
TTITLE3=Don't Let The Sun Go Down On Me - (With Elton John)
TTITLE4=You Have Been Loved
TTITLE5=Kissing A Fool
TTITLE6=I Can't Make You Love Me
TTITLE7=Heal The Pain
TTITLE8=A Moment With You
TTITLE9=Desafinado - (With Astrud Gilberto)
TTITLE10=Cowboys And Angels
TTITLE11=Praying For Time
TTITLE12=One More Try
TTITLE13=A Different Corner
EXTD=
EXTT0=
EXTT1=
EXTT2=
EXTT3=
EXTT4=
EXTT5=
EXTT6=
EXTT7=
EXTT8=
EXTT9=
EXTT10=
EXTT11=
EXTT12=
EXTT13=
PLAYORDER=
